<?xml version="1.0" encoding="utf-8"?>
<!-- Generator: Adobe Illustrator 12.0.0, SVG Export Plug-In . SVG Version: 6.00 Build 51448)  -->
<!DOCTYPE svg PUBLIC "-//W3C//DTD SVG 1.1//EN" "http://www.w3.org/Graphics/SVG/1.1/DTD/svg11.dtd" [
	<!ENTITY ns_svg "http://www.w3.org/2000/svg">
	<!ENTITY ns_xlink "http://www.w3.org/1999/xlink">
]>
<svg  version="1.1" id="Layer_1" xmlns="&ns_svg;" xmlns:xlink="&ns_xlink;" width="320" height="343" viewBox="0 0 320 343"
	 overflow="visible" enable-background="new 0 0 320 343" xml:space="preserve">
<g>
	<ellipse fill="#22B573" cx="47.233" cy="193.199" rx="8.625" ry="7.875"/>
	<g>
		<ellipse fill="#00A99D" cx="228.95" cy="67.55" rx="31.35" ry="29.883"/>
		<circle fill="#00A99D" cx="276.975" cy="197.732" r="7.15"/>
		<circle fill="#00A99D" cx="199.975" cy="112.732" r="7.15"/>
		<ellipse fill="#00A99D" cx="287.524" cy="213.207" rx="8.25" ry="7.426"/>
		<ellipse fill="#00A99D" cx="201.45" cy="204.133" rx="8.25" ry="7.975"/>
		<ellipse fill="#00A99D" cx="92.412" cy="170.721" rx="7.425" ry="6.875"/>
		<ellipse fill="#00A99D" cx="99.425" cy="157.107" rx="7.425" ry="6.6"/>
		<ellipse fill="#00A99D" cx="135.75" cy="142.633" rx="7.976" ry="7.425"/>
		<ellipse fill="#00A99D" cx="150.025" cy="95.232" rx="7.013" ry="6.875"/>
		<ellipse fill="#00A99D" cx="58.038" cy="141.158" rx="7.837" ry="7.012"/>
		<ellipse fill="#00A99D" cx="36.863" cy="209.77" rx="6.738" ry="7.014"/>
		<ellipse fill="#00A99D" cx="90.213" cy="210.183" rx="7.7" ry="7.425"/>
		<ellipse fill="#00A99D" cx="115.65" cy="216.783" rx="7.7" ry="7.516"/>
		<ellipse fill="#009245" cx="153.875" cy="25.107" rx="24.2" ry="23.1"/>
		<ellipse fill="#009245" cx="89.525" cy="124.383" rx="24.475" ry="22.55"/>
		<ellipse fill="#009245" cx="127.475" cy="242.907" rx="19.8" ry="18.976"/>
		<ellipse fill="#009245" cx="232.525" cy="232.732" rx="20.075" ry="20.351"/>
		<ellipse fill="#009245" cx="278.925" cy="115.058" rx="23.65" ry="22.55"/>
		<ellipse fill="#39B54A" cx="297.917" cy="157.133" rx="21.083" ry="20.35"/>
		<ellipse fill="#39B54A" cx="229.316" cy="122.732" rx="21.083" ry="20.35"/>
		<circle fill="#39B54A" cx="105.2" cy="86.064" r="12.834"/>
		<ellipse fill="#39B54A" cx="53.867" cy="101.832" rx="13.383" ry="12.468"/>
		<ellipse fill="#39B54A" cx="71.65" cy="159.949" rx="12.467" ry="11.916"/>
		<ellipse fill="#39B54A" cx="82.1" cy="235.482" rx="18.883" ry="17.967"/>
		<ellipse fill="#39B54A" cx="252.463" cy="198.383" rx="13.612" ry="13.338"/>
		<ellipse fill="#39B54A" cx="204.2" cy="19.699" rx="18.884" ry="18.701"/>
		<ellipse fill="#8CC63F" cx="140.95" cy="69.75" rx="17.417" ry="17.783"/>
		<circle fill="#8CC63F" cx="172.4" cy="61.25" r="8.067"/>
		<ellipse fill="#8CC63F" cx="81.55" cy="67.915" rx="9.534" ry="8.985"/>
		<ellipse fill="#8CC63F" cx="132.167" cy="116.314" rx="13.2" ry="13.385"/>
		<ellipse fill="#8CC63F" cx="134.9" cy="162.883" rx="9.9" ry="9.167"/>
		<circle fill="#8CC63F" cx="141.134" cy="213.116" r="10.45"/>
		<ellipse fill="#8CC63F" cx="222.717" cy="199.732" rx="11.367" ry="11.551"/>
		<ellipse fill="#8CC63F" cx="196.15" cy="146.75" rx="13.934" ry="13.566"/>
		<circle fill="#8CC63F" cx="186.75" cy="111.641" r="4.033"/>
		<ellipse fill="#8CC63F" cx="265.908" cy="87.533" rx="6.784" ry="6.232"/>
		<circle fill="#8CC63F" cx="232.387" cy="27.721" r="6.325"/>
		<ellipse fill="#22B573" cx="268.337" cy="227.995" rx="11.962" ry="12.237"/>
		<ellipse fill="#22B573" cx="294.1" cy="197.77" rx="5.638" ry="5.226"/>
		<ellipse fill="#22B573" cx="256.817" cy="147.783" rx="12.283" ry="12.1"/>
		<ellipse fill="#22B573" cx="228.65" cy="150.35" rx="7.15" ry="6.965"/>
		<ellipse fill="#22B573" cx="203.65" cy="226.35" rx="7.15" ry="6.965"/>
		<ellipse fill="#22B573" cx="188.3" cy="125.357" rx="6.417" ry="5.909"/>
		<path fill="#22B573" d="M204.417,95.9c0,4.453-3.611,8.064-8.066,8.064s-8.067-3.611-8.067-8.064c0-4.457,3.612-8.068,8.067-8.068
			S204.417,91.443,204.417,95.9z"/>
		<ellipse fill="#22B573" cx="250.583" cy="100.832" rx="6.784" ry="6.601"/>
		<ellipse fill="#22B573" cx="189.167" cy="48.665" rx="8.983" ry="8.435"/>
		<ellipse fill="#22B573" cx="109.417" cy="52.516" rx="13.016" ry="12.649"/>
		<ellipse fill="#22B573" cx="78.434" cy="90.1" rx="8.983" ry="8.801"/>
		<ellipse fill="#22B573" cx="128.3" cy="94.683" rx="6.783" ry="6.601"/>
		<ellipse fill="#22B573" cx="42.684" cy="124.199" rx="10.816" ry="11"/>
		<ellipse fill="#22B573" cx="117.483" cy="146.199" rx="9.166" ry="8.434"/>
		<ellipse fill="#22B573" cx="114.367" cy="168.75" rx="8.983" ry="8.433"/>
		<ellipse fill="#22B573" cx="64.867" cy="208.898" rx="9.9" ry="9.351"/>
		<ellipse fill="#8CC63F" cx="23.867" cy="192.898" rx="9.9" ry="9.351"/>
		<ellipse fill="#22B573" cx="50.75" cy="221.366" rx="6.601" ry="6.417"/>
		<ellipse fill="#8CC63F" cx="29.159" cy="159.549" rx="21.508" ry="20.067"/>
		<path fill="#754C24" d="M185.483,68.449c0,0-44.041,27.416-32.25,108.75c0,0-79.25,19.084-96.75-7c0,0,5.833,40.75,99.25,26
			l0.751-0.25c0,0,15.999,125-22.001,131c0,0-85,12-96.833,16.5h261c0,0-8.001-4.916-79.333-13.249c0,0-27.334-6.459-29.334-40.126
			c-0.997-16.784-1.001-35.396-3.5-56.063c0,0-1.75-21.031-4.666-38.698l-0.584-4.849c0,0,66.083-30.174,110.084-2.175
			c0,0-20.417-29.086-76.084-25.087c0,0-16.732,0.516-38.916,6.748c0,0-16-51.001-1.209-82.251l10.875-19.5L185.483,68.449z"/>
	</g>
</g>
</svg>
